<?xml version="1.0"?>
<svg version="1.1" xmlns="http://www.w3.org/2000/svg" width="400" height="50" style=""><path fill="#42b0ff" d="M20.74,38.405l0.525,2.94s1.4,0.735,3.43,0.735c2.24,0,4.235-0.98,4.235-2.835c0-4.095-11.83-2.275-11.83-10.92c0-4.83,3.815-7.42,8.89-7.42c3.955,0,7.7,1.4,7.7,1.4l-0.175,6.37l-3.22,0l-0.875-2.975s-1.575-0.525-3.08-0.525c-2.485,0-3.71,1.085-3.71,2.485c0,4.06,11.795,2.45,11.795,10.675c0,5.25-4.06,8.12-9.45,8.12c-3.955,0-7.805-1.33-7.805-1.33l0-6.72l3.57,0z M49.28285,26.75c5.67,0,8.82,3.43,8.82,9.45c0,6.3-3.675,10.15-9.345,10.15c-5.705,0-8.925-2.975-8.925-9.625c0-6.3,3.745-9.975,9.45-9.975z M49.10785,30.95c-2.555,0-3.85,1.4-3.85,5.6c0,3.85,1.12,5.6,3.675,5.6c2.52,0,3.745-1.575,3.745-5.775c0-3.57-1.05-5.425-3.57-5.425z M70.4057,27.1l0.245,2.415s3.325-2.695,6.44-2.695c3.395,0,5.32,2.415,5.32,6.23l0,9.275l2.45,0.875l0,2.8l-9.625,0l0-2.8l1.925-0.875l0-8.33c0-1.61-0.91-2.8-2.38-2.8c-2.17,0-3.745,1.995-3.745,1.995l0,9.135l1.925,0.875l0,2.8l-9.975,0l0-2.8l2.8-0.875l0-11.375l-2.8-0.875l0-2.8z M91.56355,21.325c0-1.995,1.435-3.15,3.01-3.15c1.82,0,2.94,0.945,2.94,3.15c0,2.065-1.505,3.185-2.94,3.185c-1.89,0-3.01-1.12-3.01-3.185z M97.44355,42.325l2.45,0.875l0,2.8l-10.5,0l0-2.8l2.8-0.875l0-11.375l-2.8-0.875l0-2.8l8.05-0.175l0,15.225z"/><path fill="#" d=""/></svg>
