<?xml version="1.0"?>
<svg version="1.1" xmlns="http://www.w3.org/2000/svg" width="400" height="50" style=""><path fill="#" d="M22,24.055l13.195,0l0-2.66l-13.195,0q-2.59,0-4.34,2.03q-1.785,2.065-1.785,5.005q0,2.66,1.785,4.62q1.75,1.995,4.34,1.995l3.5,0l3.57,0q1.575,0,2.8,1.33q1.155,1.4,1.155,3.045q0,1.96-1.1375,3.185t-2.8175,1.225l-13.195,0l0,2.17l13.195,0q2.625,0,4.375-1.82t1.75-4.76q0-2.66-1.75-4.62q-1.785-1.96-4.375-1.96l-3.57,0l-3.5,0q-1.61,0-2.765-1.4q-1.19-1.295-1.19-3.01q0-1.96,1.1375-3.1675t2.8175-1.2075z M49.7144,21.5q-3.955,0-6.79,2.835q-2.87,2.87-2.87,6.825l0,5.285q0,3.885,2.87,6.755t6.79,2.87q3.955,0,6.825-2.87q2.835-2.835,2.835-6.755l0-5.285q0-3.99-2.835-6.825t-6.825-2.835z M57.2044,31.16l0,5.285q0,3.185-2.24,5.355q-2.205,2.1-5.25,2.1t-5.215-2.1q-2.24-2.17-2.24-5.355l0-5.285q0-2.94,2.24-5.25q2.24-2.24,5.215-2.24q2.94,0,5.25,2.24q2.24,2.31,2.24,5.25z M64.5138,46l2.17,0l0-14.84q0-2.94,2.24-5.25q2.24-2.24,5.18-2.24t5.25,2.24q2.24,2.31,2.24,5.25l0,14.84l2.17,0l0-14.84q0-3.99-2.835-6.825t-6.825-2.835q-3.92,0-6.755,2.835t-2.835,6.825l0,14.84z M89.2182,46.035l2.205,0l0-24.605l-2.205,0l0,24.605z"/><path fill="#" d=""/></svg>
